<svg xmlns="http://www.w3.org/2000/svg" xmlns:xlink="http://www.w3.org/1999/xlink" viewBox="0 0 78.95 84.72"><defs><style>.cls-1{fill:url(#linear-gradient);}.cls-2{fill:#fff;}.cls-3{fill:#5c6b7e;}</style><linearGradient id="linear-gradient" x1="39.48" y1="64.86" x2="39.48" y2="9.55" gradientUnits="userSpaceOnUse"><stop offset="0" stop-color="#065591"/><stop offset="0.05" stop-color="#116a9c"/><stop offset="0.13" stop-color="#2086aa"/><stop offset="0.21" stop-color="#2c9db6"/><stop offset="0.31" stop-color="#36aebf"/><stop offset="0.44" stop-color="#3cbbc5"/><stop offset="0.6" stop-color="#40c2c9"/><stop offset="1" stop-color="#41c4ca"/></linearGradient></defs><title>select</title><g id="icons_outlined" data-name="icons outlined"><path class="cls-1" d="M69.4,39.48a29.84,29.84,0,0,1-9.07,21.46c-5.39,5.24-36.34,5.23-41.73,0A29.92,29.92,0,1,1,69.4,39.48Z"/><path class="cls-2" d="M20.59,25.95V62.68a29.91,29.91,0,0,0,37.78,0V25.95Zm13.3,29.42L31.49,53,29.1,55.36l-2.25-2.25,2.39-2.39-2.39-2.39,2.25-2.25,2.39,2.39,2.39-2.39,2.25,2.25-2.39,2.39,2.39,2.39ZM29.75,41.72l-4.64-4.64,2.25-2.25,2.39,2.39,5.89-5.93,2.25,2.25Zm18.34-3.39-2.39,2.39-2.25-2.25,2.39-2.39-2.39-2.39,2.25-2.25,2.39,2.39,2.39-2.39,2.25,2.25-2.39,2.39,2.39,2.39-2.25,2.25Z"/><polygon class="cls-3" points="50.33 36.09 52.73 33.69 50.48 31.45 48.09 33.84 45.7 31.45 43.45 33.69 45.84 36.09 43.45 38.48 45.7 40.72 48.09 38.33 50.48 40.72 52.73 38.48 50.33 36.09"/><polygon class="cls-3" points="29.75 37.23 27.35 34.84 25.11 37.09 29.75 41.72 37.88 33.55 35.63 31.3 29.75 37.23"/><polygon class="cls-3" points="36.13 48.33 33.89 46.08 31.49 48.48 29.1 46.08 26.85 48.33 29.25 50.72 26.85 53.12 29.1 55.36 31.49 52.97 33.89 55.36 36.13 53.12 33.74 50.72 36.13 48.33"/><path class="cls-3" d="M17.16,22.52V59.41a30.1,30.1,0,0,0,2.28,2.3q.56.5,1.14,1V25.95H58.36V62.68c.3-.25.59-.5.89-.76a30.1,30.1,0,0,0,2.54-2.52V22.52Z"/><path class="cls-3" d="M37.58,78.91A39.46,39.46,0,1,1,73.91,58.8l-2.7-1.52A36.38,36.38,0,1,0,37.73,75.81Z"/><path class="cls-2" d="M64.61,60.74a1.65,1.65,0,0,0-1.3.63,1.55,1.55,0,0,1-2.77-.69A1.55,1.55,0,0,0,59,59.48a1.65,1.65,0,0,0-1.3.63,1.55,1.55,0,0,1-2.77-.69,1.54,1.54,0,0,0-1.57-1.2h0a1.66,1.66,0,0,0-1.17.47,1.55,1.55,0,0,1-2.64-1l-.38-8.25A1.55,1.55,0,0,0,47.55,48h0a1.7,1.7,0,0,0-1.21.5,1.21,1.21,0,0,0-.36.88l.44,17.39a1.55,1.55,0,0,1-2.82.93l-1.92-2.74A6.93,6.93,0,0,0,37.9,63a1.33,1.33,0,0,0-.32.63,1.25,1.25,0,0,0,.21,1L47.88,79.07c2.47,3,7.63,3,11.4,1.78s6.22-3.54,6.34-5.91L66.21,62a1.07,1.07,0,0,0-.32-.79A1.74,1.74,0,0,0,64.61,60.74Z"/><path class="cls-3" d="M68.12,59.12a4.75,4.75,0,0,0-3.53-1.48,4.82,4.82,0,0,0-2,.43,4.69,4.69,0,0,0-3.68-1.69,4.83,4.83,0,0,0-2,.43,4.72,4.72,0,0,0-3.68-1.69,4.89,4.89,0,0,0-.8.07l-.27-5.93a4.64,4.64,0,0,0-4.68-4.41h0a4.81,4.81,0,0,0-3.41,1.44,4.29,4.29,0,0,0-1.24,3.11l.32,12.66a10.35,10.35,0,0,0-5.77-2.16h0a1.55,1.55,0,0,0-.81.23,4.45,4.45,0,0,0-2.05,2.91,4.32,4.32,0,0,0,.71,3.38L45.37,80.9l.07.09c2.17,2.67,5.6,3.73,9.08,3.73a18.67,18.67,0,0,0,5.72-.92c5-1.65,8.28-5,8.47-8.71l.59-12.9A4.13,4.13,0,0,0,68.12,59.12ZM59.28,80.85c-3.77,1.23-8.93,1.2-11.4-1.78L37.78,64.65a1.25,1.25,0,0,1-.21-1A1.33,1.33,0,0,1,37.9,63a6.93,6.93,0,0,1,3.78,1.86l1.92,2.74a1.55,1.55,0,0,0,2.82-.93L46,49.33a1.21,1.21,0,0,1,.36-.87,1.7,1.7,0,0,1,1.21-.5h0a1.55,1.55,0,0,1,1.58,1.45l.38,8.25a1.55,1.55,0,0,0,2.64,1,1.66,1.66,0,0,1,1.17-.47h0a1.54,1.54,0,0,1,1.57,1.2,1.55,1.55,0,0,0,2.77.69,1.65,1.65,0,0,1,1.3-.63,1.55,1.55,0,0,1,1.58,1.2,1.55,1.55,0,0,0,2.77.69,1.65,1.65,0,0,1,1.3-.63,1.74,1.74,0,0,1,1.27.52,1.07,1.07,0,0,1,.32.79l-.59,12.9C65.5,77.31,63,79.63,59.28,80.85Z"/></g></svg>